<svg xmlns="http://www.w3.org/2000/svg" viewBox="0 0 512 512" fill="none">
  <rect width="512" height="512" rx="128" fill="#0f0f12"/>
  <path d="M256 96c-26 0-48 22-48 48v224c0 26 22 48 48 48s48-22 48-48V144c0-26-22-48-48-48z" fill="#00d4aa" opacity=".9"/>
  <path d="M176 160h-32c-18 0-32 14-32 32v128c0 18 14 32 32 32h32c18 0 32-14 32-32V192c0-18-14-32-32-32z" fill="#00d4aa"/>
  <path d="M368 160h-32c-18 0-32 14-32 32v128c0 18 14 32 32 32h32c18 0 32-14 32-32V192c0-18-14-32-32-32z" fill="#00d4aa"/>
  <circle cx="256" cy="352" r="24" fill="#00d4aa"/>
</svg>
